<svg width="384" height="119" viewBox="0 0 384 119" fill="none" xmlns="http://www.w3.org/2000/svg">
<path d="M0 -1H384V119H0V-1Z" fill="white"/>
<g clip-path="url(#clip0_418_180)">
<path d="M87.3467 104C84.4916 104.002 81.7241 103.014 79.516 101.204C77.3079 99.3936 75.7958 96.8738 75.2376 94.0738C74.6793 91.2737 75.1094 88.3667 76.4545 85.8483C77.7996 83.3298 79.9765 81.3558 82.6141 80.2627C85.2518 79.1695 88.1869 79.0249 90.9191 79.8536C93.6514 80.6822 96.0118 82.4328 97.5979 84.8069C99.184 87.181 99.8976 90.0316 99.6172 92.873C99.3369 95.7144 98.0797 98.3706 96.0602 100.389C94.9174 101.535 93.5593 102.444 92.0639 103.064C90.5686 103.684 88.9654 104.002 87.3467 104Z" fill="#EC6807"/>
<path d="M20.3387 38.2287C17.4894 38.2254 14.7293 37.2344 12.5287 35.4244C10.3281 33.6145 8.82297 31.0975 8.26982 28.3024C7.71667 25.5073 8.14967 22.6069 9.49505 20.0951C10.8404 17.5834 13.015 15.6159 15.6483 14.5275C18.2816 13.4392 21.2107 13.2975 23.9368 14.1265C26.6629 14.9555 29.0172 16.704 30.5988 19.0741C32.1804 21.4442 32.8914 24.2893 32.6106 27.1247C32.3299 29.9602 31.0748 32.6106 29.0592 34.6246C27.9167 35.7728 26.5575 36.6826 25.0605 37.3013C23.5635 37.92 21.9585 38.2352 20.3387 38.2287Z" fill="#EC6807"/>
<path d="M86.7955 37.8683C83.9421 37.868 81.1771 36.8781 78.9718 35.0675C76.7664 33.2568 75.2573 30.7374 74.7014 27.9387C74.1456 25.1399 74.5776 22.235 75.9237 19.7191C77.2698 17.2032 79.4467 15.2319 82.0835 14.1413C84.7202 13.0506 87.6536 12.9081 90.3837 13.7381C93.1137 14.568 95.4715 16.319 97.0551 18.6926C98.6387 21.0663 99.3502 23.9156 99.0682 26.7551C98.7863 29.5945 97.5284 32.2483 95.5089 34.2642C94.3668 35.4109 93.0086 36.3198 91.513 36.9384C90.0174 37.5571 88.414 37.8731 86.7955 37.8683Z" fill="#EC6807"/>
<path d="M20.6638 104C18.2232 104.002 15.837 103.279 13.8072 101.924C11.7775 100.568 10.1956 98.6412 9.26189 96.3863C8.32813 94.1313 8.08449 91.65 8.56182 89.2565C9.03915 86.863 10.216 84.665 11.9433 82.9407C12.4757 82.4144 13.0579 81.9411 13.6818 81.5274C13.8867 81.386 14.0846 81.2659 14.2824 81.1458C14.7418 80.8843 15.1941 80.644 15.6181 80.4391C15.8513 80.3331 16.0916 80.2271 16.3248 80.1352C16.8161 79.9517 17.3189 79.8007 17.83 79.6829L18.141 79.5981L18.3318 79.5486L21.0737 79.3579C21.427 79.3579 21.7804 79.4214 22.1903 79.4709H22.3528H22.6991H22.8051H22.9323H23.0383C23.2432 79.4709 23.4411 79.4709 23.6461 79.4709C28.4705 79.4039 33.0711 77.4243 36.4368 73.9671C39.8026 70.51 41.6582 65.858 41.5959 61.0335V60.8992V60.7508C41.5751 60.6197 41.561 60.4876 41.5535 60.355C41.5535 60.1925 41.5535 60.037 41.5111 59.8816V59.606C41.5111 59.3657 41.4616 59.1325 41.4475 58.8993L41.6595 56.1432C41.6708 56.0753 41.6898 56.0089 41.716 55.9453L41.7655 55.7757C41.884 55.2479 42.0375 54.7285 42.2248 54.221C42.3109 53.9792 42.4124 53.7431 42.5287 53.5143C42.7374 53.0463 42.9734 52.5909 43.2354 52.1504C43.3484 51.9526 43.4615 51.7617 43.5958 51.5639C44.0161 50.9404 44.4889 50.3541 45.0092 49.8113C46.1548 48.6661 47.5148 47.7578 49.0115 47.1382C50.5082 46.5186 52.1123 46.1998 53.7322 46.2002C55.352 46.2005 56.956 46.5199 58.4524 47.1401C59.9489 47.7603 61.3085 48.6692 62.4537 49.8148C63.5989 50.9605 64.5072 52.3205 65.1268 53.8172C65.7464 55.3139 66.0652 56.9179 66.0648 58.5378C66.0645 60.1577 65.7451 61.7617 65.1249 63.2581C64.5047 64.7545 63.5958 66.1142 62.4502 67.2594C61.9175 67.7853 61.3353 68.2586 60.7117 68.6727C60.5068 68.807 60.316 68.9272 60.1181 69.0402C59.6864 69.3005 59.2405 69.5364 58.7825 69.7469C58.5422 69.8529 58.3019 69.966 58.0758 70.0508C57.5867 70.2318 57.0862 70.3805 56.5776 70.496L56.2808 70.5808L56.0829 70.6373L53.3127 70.8352C52.9877 70.8352 52.6414 70.7787 52.288 70.7292H52.0407H51.6944H51.5955H51.4541H50.7475C45.9217 70.7944 41.3194 72.7731 37.9521 76.2305C34.5849 79.6879 32.7283 84.3409 32.7906 89.1666V89.308V89.4493C32.8117 89.5804 32.8258 89.7125 32.833 89.8451L32.8754 90.3185C32.8754 90.4104 32.8754 90.58 32.9248 90.7496C32.9492 90.9348 32.9634 91.1212 32.9672 91.3079V91.3786L32.7694 94.0145L32.6422 94.4739C32.5233 94.9916 32.3722 95.5014 32.1899 96.0003C32.098 96.2476 32.0061 96.4667 31.9001 96.707C31.6811 97.1805 31.4479 97.6257 31.1935 98.1204C31.0733 98.3041 30.9391 98.5232 30.7977 98.7352C30.3778 99.3479 29.9049 99.9225 29.3843 100.452C28.2427 101.6 26.8848 102.511 25.3892 103.131C23.8936 103.75 22.2899 104.067 20.6709 104.064L20.6638 104Z" fill="#EC6807"/>
<path d="M53.9699 104C51.3226 104.038 48.7341 103.218 46.5911 101.663C44.4481 100.108 42.8657 97.9015 42.0801 95.3731C41.2946 92.8447 41.3481 90.13 42.2326 87.6345C43.1172 85.139 44.7853 82.9966 46.9879 81.5273C47.1716 81.4001 47.3695 81.28 47.5744 81.1599C48.0085 80.8996 48.4568 80.6637 48.9171 80.4532C49.1475 80.3402 49.3833 80.2388 49.6238 80.1493C50.1084 79.9711 50.6042 79.8247 51.1079 79.7112L51.6026 79.5769L54.3869 79.372C54.719 79.372 55.0936 79.4356 55.4469 79.478H55.6519C55.7743 79.4844 55.8969 79.4844 56.0193 79.478H56.1536H56.2384H56.3585H56.9734C61.7941 79.4054 66.3893 77.4234 69.7504 73.9668C73.1116 70.5102 74.9643 65.8615 74.902 61.0405V60.4681L74.8455 60.4045V60.3409C74.8455 60.2066 74.8455 60.0724 74.8455 59.9381L74.796 59.5423C74.796 59.3233 74.7465 59.1113 74.7395 58.8922L74.9303 56.2209C74.9303 56.1573 75.0363 55.8252 75.0645 55.7262C75.1817 55.2104 75.3328 54.7028 75.5168 54.2069C75.605 53.9659 75.7065 53.73 75.8207 53.5002C76.0301 53.037 76.2661 52.5864 76.5274 52.1504L76.5839 52.0656C76.6735 51.8998 76.7726 51.7394 76.8807 51.5851C77.2952 50.953 77.7684 50.3615 78.2941 49.8183C79.4342 48.6476 80.7954 47.7151 82.2989 47.0747C83.8023 46.4344 85.4179 46.0991 87.052 46.0883C88.6861 46.0775 90.306 46.3913 91.8178 47.0116C93.3296 47.632 94.7031 48.5465 95.8586 49.7019C97.014 50.8574 97.9285 52.2309 98.5489 53.7427C99.1692 55.2545 99.483 56.8744 99.4722 58.5085C99.4614 60.1426 99.1261 61.7582 98.4858 63.2617C97.8455 64.7651 96.9129 66.1263 95.7422 67.2664C95.2016 67.7864 94.6177 68.2592 93.9967 68.6798C93.8553 68.7787 93.721 68.8565 93.5868 68.9342L93.3748 69.0685C92.9547 69.3279 92.5206 69.5638 92.0745 69.7752C91.8271 69.8882 91.5939 69.9942 91.3678 70.0861C90.8753 70.2641 90.3726 70.4128 89.8625 70.5313L89.5516 70.6161L89.3537 70.6727L86.6118 70.8635C86.209 70.8635 85.7779 70.7857 85.3539 70.7292H84.9935H84.8521H84.6189H84.0112C81.6227 70.7614 79.2639 71.264 77.0697 72.2082C74.8755 73.1523 72.8889 74.5196 71.2233 76.2318C69.5576 77.944 68.2457 79.9676 67.3624 82.187C66.4792 84.4065 66.0418 86.7781 66.0755 89.1666V89.3009V89.4352C66.0755 89.5765 66.0755 89.7178 66.1179 89.8592C66.1603 90.0005 66.1179 90.1489 66.1532 90.2903C66.1886 90.4316 66.1532 90.5517 66.1956 90.7001C66.238 90.8485 66.2451 91.1171 66.2521 91.322L66.0472 94.0286C66.0472 94.0922 65.9271 94.4526 65.9271 94.4526C65.8103 94.9779 65.6592 95.4949 65.4748 96.0003C65.39 96.2264 65.2911 96.4384 65.1921 96.6646V96.7423C64.979 97.1876 64.7431 97.6216 64.4854 98.0426C64.3582 98.2546 64.2381 98.4596 64.1038 98.6574C63.6837 99.281 63.2108 99.8673 62.6905 100.41C61.5503 101.555 60.1944 102.463 58.7011 103.08C57.2079 103.697 55.607 104.012 53.9911 104.007" fill="#EC6807"/>
<path d="M20.6638 70.6939C18.224 70.6975 15.838 69.9769 13.808 68.6234C11.7781 67.2698 10.1955 65.3442 9.26088 63.0905C8.32625 60.8368 8.08157 58.3564 8.55784 55.9635C9.03411 53.5706 10.2099 51.3729 11.9363 49.6488C12.4725 49.124 13.0569 48.6508 13.6818 48.2354C13.8655 48.1082 14.0775 47.981 14.2895 47.8538C14.72 47.5957 15.1635 47.3599 15.6181 47.1471C15.8584 47.0411 16.0916 46.9351 16.3248 46.8432C16.804 46.6651 17.2952 46.521 17.7947 46.4121L18.1127 46.3203L18.2823 46.2708L21.0737 46.0729C21.4341 46.0729 21.8299 46.1365 22.2397 46.1931H22.3245H22.692H22.8121H22.9323H23.639C28.461 46.1242 33.0583 44.1433 36.4202 40.686C39.7822 37.2286 41.6337 32.5776 41.5676 27.7556V27.6213V27.4871C41.5676 27.3387 41.5676 27.1903 41.5252 27.0348C41.4828 26.8793 41.5252 26.7875 41.5252 26.6603L41.4828 26.2786C41.4828 26.0525 41.4263 25.8193 41.4192 25.572L41.61 22.9855V22.9219V22.8724C41.61 22.8088 41.7302 22.4696 41.7302 22.4696C41.8484 21.9378 41.9995 21.4139 42.1824 20.9008C42.2672 20.6676 42.3732 20.4344 42.4863 20.1941C42.6912 19.7489 42.9244 19.3037 43.193 18.8443L43.2354 18.7736C43.3414 18.597 43.4474 18.4203 43.5675 18.2436C43.9831 17.6233 44.4563 17.0436 44.9809 16.5122C46.1261 15.3666 47.4857 14.4577 48.9822 13.8375C50.4786 13.2173 52.0826 12.8979 53.7025 12.8976C55.3223 12.8973 56.9264 13.216 58.4231 13.8356C59.9198 14.4552 61.2798 15.3635 62.4255 16.5087C63.5711 17.6539 64.48 19.0135 65.1002 20.51C65.7204 22.0064 66.0398 23.6104 66.0401 25.2303C66.0404 26.8501 65.7217 28.4542 65.1021 29.9509C64.4825 31.4476 63.5742 32.8076 62.429 33.9533C61.8997 34.483 61.3171 34.9566 60.6905 35.3666C60.5247 35.4866 60.3525 35.5975 60.1746 35.6988L60.0828 35.7482C59.6558 36.0082 59.2146 36.2441 58.7613 36.4549C58.5139 36.568 58.2807 36.674 58.0546 36.7588C57.5615 36.9422 57.0561 37.091 56.5423 37.204L56.2172 37.2959L56.0264 37.3524L53.2915 37.5432C52.9453 37.5432 52.5848 37.4796 52.1891 37.4302H52.0195C51.9018 37.424 51.7839 37.424 51.6662 37.4302H51.5248H51.4329H50.7263C48.3378 37.4624 45.979 37.965 43.7848 38.9091C41.5906 39.8533 39.604 41.2205 37.9383 42.9327C36.2727 44.645 34.9608 46.6686 34.0775 48.888C33.1942 51.1074 32.7569 53.4791 32.7906 55.8676V56.0019V56.1361C32.8152 56.2762 32.8293 56.418 32.833 56.5602C32.833 56.7015 32.833 56.8428 32.8683 56.9912C32.9036 57.1396 32.8683 57.2527 32.9178 57.394C32.9672 57.5354 32.9672 57.8039 32.9672 58.0089L32.7764 60.7013C32.7764 60.7626 32.7552 60.8333 32.7128 60.9133L32.6422 61.1536C32.5278 61.6787 32.379 62.1957 32.1969 62.7013C32.1121 62.9345 31.9991 63.1747 31.886 63.4079C31.6741 63.863 31.4382 64.3065 31.1793 64.7365C31.0521 64.9485 30.932 65.1464 30.8048 65.3372C29.6925 67.0001 28.1837 68.3599 26.4145 69.2938C24.6453 70.2278 22.6714 70.7065 20.6709 70.6868" fill="#EC6807"/>
</g>
<path d="M120.851 31.1818H126.114V45.255C126.114 46.8814 125.727 48.2983 124.952 49.5057C124.178 50.706 123.099 51.6364 121.714 52.2969C120.329 52.9503 118.72 53.277 116.888 53.277C115.034 53.277 113.415 52.9503 112.03 52.2969C110.645 51.6364 109.569 50.706 108.802 49.5057C108.035 48.2983 107.651 46.8814 107.651 45.255V31.1818H112.925V44.7969C112.925 45.5497 113.088 46.2209 113.415 46.8104C113.749 47.3999 114.214 47.8615 114.81 48.1953C115.407 48.5291 116.099 48.696 116.888 48.696C117.676 48.696 118.365 48.5291 118.955 48.1953C119.551 47.8615 120.016 47.3999 120.35 46.8104C120.684 46.2209 120.851 45.5497 120.851 44.7969V31.1818ZM137.047 59.4773C135.491 59.4773 134.16 59.2607 133.052 58.8274C131.944 58.3942 131.074 57.8011 130.442 57.0483C129.809 56.2955 129.43 55.4432 129.302 54.4915L134.234 54.2145C134.327 54.5483 134.497 54.8395 134.746 55.0881C135.001 55.3366 135.331 55.5284 135.736 55.6634C136.148 55.7983 136.631 55.8658 137.185 55.8658C138.059 55.8658 138.78 55.6527 139.348 55.2266C139.923 54.8075 140.211 54.0724 140.211 53.0213V50.1449H140.03C139.824 50.6491 139.511 51.1001 139.092 51.4979C138.673 51.8956 138.151 52.2081 137.526 52.4354C136.908 52.6626 136.198 52.7763 135.395 52.7763C134.202 52.7763 133.108 52.4993 132.114 51.9453C131.127 51.3842 130.335 50.5178 129.738 49.3459C129.149 48.1669 128.854 46.6506 128.854 44.7969C128.854 42.8864 129.16 41.3132 129.77 40.0774C130.381 38.8345 131.18 37.9148 132.167 37.3182C133.162 36.7216 134.231 36.4233 135.374 36.4233C136.233 36.4233 136.969 36.5724 137.579 36.8707C138.197 37.1619 138.705 37.5384 139.103 38C139.501 38.4616 139.802 38.9411 140.008 39.4382H140.157V36.6364H145.346V53.0639C145.346 54.4489 144.998 55.6172 144.302 56.5689C143.606 57.5206 142.633 58.2415 141.383 58.7315C140.133 59.2287 138.687 59.4773 137.047 59.4773ZM137.206 48.9837C137.839 48.9837 138.378 48.8168 138.826 48.483C139.273 48.1491 139.618 47.6697 139.859 47.0447C140.101 46.4197 140.221 45.6705 140.221 44.7969C140.221 43.9091 140.101 43.1456 139.859 42.5064C139.625 41.8601 139.28 41.3629 138.826 41.0149C138.378 40.6669 137.839 40.4929 137.206 40.4929C136.56 40.4929 136.013 40.6705 135.566 41.0256C135.118 41.3807 134.778 41.8814 134.543 42.5277C134.316 43.1669 134.202 43.9233 134.202 44.7969C134.202 45.6705 134.319 46.4197 134.554 47.0447C134.788 47.6697 135.126 48.1491 135.566 48.483C136.013 48.8168 136.56 48.9837 137.206 48.9837ZM153.28 53.277C152.236 53.277 151.309 53.103 150.499 52.755C149.697 52.3999 149.061 51.8672 148.592 51.157C148.131 50.4396 147.9 49.5412 147.9 48.4616C147.9 47.5526 148.06 46.7855 148.379 46.1605C148.699 45.5355 149.139 45.0277 149.7 44.6371C150.261 44.2464 150.908 43.9517 151.639 43.7528C152.371 43.5469 153.152 43.4084 153.983 43.3374C154.913 43.2521 155.663 43.1634 156.231 43.071C156.799 42.9716 157.211 42.8331 157.467 42.6555C157.729 42.4709 157.861 42.2116 157.861 41.8778V41.8246C157.861 41.2777 157.673 40.8551 157.296 40.5568C156.92 40.2585 156.412 40.1094 155.773 40.1094C155.084 40.1094 154.53 40.2585 154.111 40.5568C153.692 40.8551 153.425 41.267 153.312 41.7926L148.507 41.6222C148.649 40.6278 149.015 39.7401 149.604 38.9588C150.201 38.1705 151.018 37.5526 152.055 37.1051C153.099 36.6506 154.352 36.4233 155.815 36.4233C156.859 36.4233 157.822 36.5476 158.702 36.7962C159.583 37.0376 160.35 37.3928 161.004 37.8615C161.657 38.3232 162.161 38.8913 162.516 39.5661C162.879 40.2408 163.06 41.0114 163.06 41.8778V53H158.159V50.7202H158.031C157.74 51.2741 157.367 51.7429 156.913 52.1264C156.465 52.5099 155.936 52.7976 155.325 52.9893C154.722 53.1811 154.04 53.277 153.28 53.277ZM154.888 49.8679C155.45 49.8679 155.954 49.7543 156.401 49.527C156.856 49.2997 157.218 48.9872 157.488 48.5895C157.758 48.1847 157.893 47.7159 157.893 47.1832V45.6278C157.744 45.706 157.563 45.777 157.349 45.8409C157.143 45.9048 156.916 45.9652 156.668 46.022C156.419 46.0788 156.163 46.1286 155.901 46.1712C155.638 46.2138 155.386 46.2528 155.144 46.2884C154.654 46.3665 154.235 46.4872 153.887 46.6506C153.546 46.8139 153.283 47.027 153.099 47.2898C152.921 47.5455 152.832 47.8509 152.832 48.206C152.832 48.7457 153.024 49.1577 153.408 49.4418C153.798 49.7259 154.292 49.8679 154.888 49.8679ZM171.455 43.6676V53H166.245V36.6364H171.199V39.6406H171.38C171.742 38.6392 172.36 37.8544 173.234 37.2862C174.107 36.7109 175.148 36.4233 176.355 36.4233C177.506 36.4233 178.504 36.6825 179.349 37.201C180.201 37.7124 180.862 38.4297 181.33 39.353C181.806 40.2692 182.04 41.3416 182.033 42.5703V53H176.824V43.593C176.831 42.6839 176.6 41.9737 176.131 41.4624C175.67 40.951 175.027 40.6953 174.203 40.6953C173.656 40.6953 173.173 40.8161 172.754 41.0575C172.342 41.2919 172.023 41.6293 171.795 42.0696C171.575 42.5099 171.462 43.0426 171.455 43.6676ZM191.235 53.2344C190.028 53.2344 188.931 52.9219 187.943 52.2969C186.956 51.6719 186.168 50.7344 185.578 49.4844C184.989 48.2344 184.694 46.6825 184.694 44.8288C184.694 42.9041 184.999 41.3203 185.61 40.0774C186.221 38.8345 187.02 37.9148 188.007 37.3182C189.002 36.7216 190.07 36.4233 191.214 36.4233C192.073 36.4233 192.808 36.5724 193.419 36.8707C194.03 37.1619 194.534 37.5384 194.932 38C195.33 38.4616 195.632 38.9411 195.838 39.4382H195.944V31.1818H201.154V53H195.997V50.3473H195.838C195.617 50.8516 195.305 51.3239 194.9 51.7642C194.495 52.2045 193.987 52.5597 193.377 52.8295C192.773 53.0994 192.059 53.2344 191.235 53.2344ZM193.046 49.1754C193.678 49.1754 194.218 48.9979 194.666 48.6428C195.113 48.2805 195.458 47.7727 195.699 47.1193C195.941 46.4659 196.061 45.6989 196.061 44.8182C196.061 43.9233 195.941 43.1527 195.699 42.5064C195.465 41.8601 195.12 41.3629 194.666 41.0149C194.218 40.6669 193.678 40.4929 193.046 40.4929C192.4 40.4929 191.853 40.6705 191.406 41.0256C190.958 41.3807 190.617 41.8814 190.383 42.5277C190.156 43.174 190.042 43.9375 190.042 44.8182C190.042 45.6989 190.159 46.4659 190.394 47.1193C190.628 47.7727 190.965 48.2805 191.406 48.6428C191.853 48.9979 192.4 49.1754 193.046 49.1754ZM209.061 53.277C208.017 53.277 207.09 53.103 206.281 52.755C205.478 52.3999 204.842 51.8672 204.374 51.157C203.912 50.4396 203.681 49.5412 203.681 48.4616C203.681 47.5526 203.841 46.7855 204.161 46.1605C204.48 45.5355 204.92 45.0277 205.482 44.6371C206.043 44.2464 206.689 43.9517 207.42 43.7528C208.152 43.5469 208.933 43.4084 209.764 43.3374C210.695 43.2521 211.444 43.1634 212.012 43.071C212.58 42.9716 212.992 42.8331 213.248 42.6555C213.511 42.4709 213.642 42.2116 213.642 41.8778V41.8246C213.642 41.2777 213.454 40.8551 213.077 40.5568C212.701 40.2585 212.193 40.1094 211.554 40.1094C210.865 40.1094 210.311 40.2585 209.892 40.5568C209.473 40.8551 209.207 41.267 209.093 41.7926L204.288 41.6222C204.43 40.6278 204.796 39.7401 205.386 38.9588C205.982 38.1705 206.799 37.5526 207.836 37.1051C208.88 36.6506 210.134 36.4233 211.597 36.4233C212.641 36.4233 213.603 36.5476 214.484 36.7962C215.364 37.0376 216.131 37.3928 216.785 37.8615C217.438 38.3232 217.942 38.8913 218.298 39.5661C218.66 40.2408 218.841 41.0114 218.841 41.8778V53H213.94V50.7202H213.812C213.521 51.2741 213.148 51.7429 212.694 52.1264C212.246 52.5099 211.717 52.7976 211.107 52.9893C210.503 53.1811 209.821 53.277 209.061 53.277ZM210.67 49.8679C211.231 49.8679 211.735 49.7543 212.183 49.527C212.637 49.2997 212.999 48.9872 213.269 48.5895C213.539 48.1847 213.674 47.7159 213.674 47.1832V45.6278C213.525 45.706 213.344 45.777 213.131 45.8409C212.925 45.9048 212.697 45.9652 212.449 46.022C212.2 46.0788 211.945 46.1286 211.682 46.1712C211.419 46.2138 211.167 46.2528 210.925 46.2884C210.435 46.3665 210.016 46.4872 209.668 46.6506C209.327 46.8139 209.065 47.027 208.88 47.2898C208.702 47.5455 208.614 47.8509 208.614 48.206C208.614 48.7457 208.805 49.1577 209.189 49.4418C209.58 49.7259 210.073 49.8679 210.67 49.8679ZM228.472 53V31.1818H237.484C239.118 31.1818 240.528 31.5014 241.714 32.1406C242.907 32.7727 243.827 33.657 244.473 34.7933C245.119 35.9226 245.442 37.2365 245.442 38.7351C245.442 40.2408 245.112 41.5582 244.452 42.6875C243.798 43.8097 242.864 44.6797 241.65 45.2976C240.435 45.9155 238.994 46.2244 237.325 46.2244H231.763V42.0696H236.344C237.14 42.0696 237.804 41.9311 238.337 41.6541C238.876 41.3771 239.285 40.9901 239.562 40.4929C239.839 39.9886 239.977 39.4027 239.977 38.7351C239.977 38.0604 239.839 37.478 239.562 36.9879C239.285 36.4908 238.876 36.1072 238.337 35.8374C237.797 35.5675 237.133 35.4325 236.344 35.4325H233.745V53H228.472ZM255.358 53.3089C253.639 53.3089 252.162 52.9574 250.926 52.2543C249.698 51.544 248.749 50.5568 248.082 49.2926C247.421 48.0213 247.091 46.5476 247.091 44.8714C247.091 43.1882 247.421 41.7145 248.082 40.4503C248.749 39.179 249.698 38.1918 250.926 37.4886C252.162 36.7784 253.639 36.4233 255.358 36.4233C257.077 36.4233 258.551 36.7784 259.779 37.4886C261.015 38.1918 261.963 39.179 262.624 40.4503C263.291 41.7145 263.625 43.1882 263.625 44.8714C263.625 46.5476 263.291 48.0213 262.624 49.2926C261.963 50.5568 261.015 51.544 259.779 52.2543C258.551 52.9574 257.077 53.3089 255.358 53.3089ZM255.39 49.3778C256.015 49.3778 256.544 49.1861 256.977 48.8026C257.411 48.419 257.741 47.8864 257.968 47.2045C258.203 46.5227 258.32 45.7344 258.32 44.8395C258.32 43.9304 258.203 43.1349 257.968 42.4531C257.741 41.7713 257.411 41.2386 256.977 40.8551C256.544 40.4716 256.015 40.2798 255.39 40.2798C254.744 40.2798 254.197 40.4716 253.749 40.8551C253.309 41.2386 252.972 41.7713 252.737 42.4531C252.51 43.1349 252.396 43.9304 252.396 44.8395C252.396 45.7344 252.51 46.5227 252.737 47.2045C252.972 47.8864 253.309 48.419 253.749 48.8026C254.197 49.1861 254.744 49.3778 255.39 49.3778ZM271.503 31.1818V53H266.294V31.1818H271.503ZM278.005 59.1364C277.38 59.1364 276.79 59.0866 276.236 58.9872C275.682 58.8949 275.206 58.7706 274.809 58.6143L275.959 54.8324C276.471 55.0028 276.932 55.1023 277.344 55.1307C277.763 55.1591 278.122 55.0916 278.42 54.9283C278.725 54.772 278.96 54.4915 279.123 54.0866L279.326 53.5966L273.509 36.6364H278.963L281.978 48.3125H282.149L285.206 36.6364H290.693L284.525 54.5661C284.226 55.4609 283.804 56.2493 283.257 56.9311C282.717 57.62 282.017 58.1598 281.158 58.5504C280.306 58.9411 279.255 59.1364 278.005 59.1364ZM292.69 53V36.6364H297.644V39.6406H297.825C298.166 38.6463 298.741 37.8615 299.551 37.2862C300.361 36.7109 301.327 36.4233 302.449 36.4233C303.585 36.4233 304.558 36.7145 305.368 37.2969C306.178 37.8793 306.692 38.6605 306.913 39.6406H307.083C307.388 38.6676 307.985 37.8899 308.873 37.3075C309.761 36.718 310.808 36.4233 312.016 36.4233C313.564 36.4233 314.821 36.9205 315.787 37.9148C316.753 38.902 317.236 40.2585 317.236 41.9844V53H312.026V43.1776C312.026 42.3608 311.817 41.7393 311.398 41.3132C310.979 40.88 310.435 40.6634 309.768 40.6634C309.05 40.6634 308.486 40.8977 308.074 41.3665C307.669 41.8281 307.467 42.4496 307.467 43.2308V53H302.46V43.1243C302.46 42.3643 302.254 41.7642 301.842 41.3239C301.43 40.8835 300.886 40.6634 300.212 40.6634C299.757 40.6634 299.356 40.7734 299.008 40.9936C298.66 41.2067 298.386 41.5121 298.188 41.9098C297.996 42.3075 297.9 42.7763 297.9 43.3161V53H292.69ZM325.077 53.277C324.033 53.277 323.106 53.103 322.296 52.755C321.494 52.3999 320.858 51.8672 320.389 51.157C319.928 50.4396 319.697 49.5412 319.697 48.4616C319.697 47.5526 319.857 46.7855 320.176 46.1605C320.496 45.5355 320.936 45.0277 321.497 44.6371C322.058 44.2464 322.705 43.9517 323.436 43.7528C324.168 43.5469 324.949 43.4084 325.78 43.3374C326.71 43.2521 327.46 43.1634 328.028 43.071C328.596 42.9716 329.008 42.8331 329.263 42.6555C329.526 42.4709 329.658 42.2116 329.658 41.8778V41.8246C329.658 41.2777 329.469 40.8551 329.093 40.5568C328.717 40.2585 328.209 40.1094 327.57 40.1094C326.881 40.1094 326.327 40.2585 325.908 40.5568C325.489 40.8551 325.222 41.267 325.109 41.7926L320.304 41.6222C320.446 40.6278 320.812 39.7401 321.401 38.9588C321.998 38.1705 322.815 37.5526 323.852 37.1051C324.896 36.6506 326.149 36.4233 327.612 36.4233C328.656 36.4233 329.619 36.5476 330.499 36.7962C331.38 37.0376 332.147 37.3928 332.8 37.8615C333.454 38.3232 333.958 38.8913 334.313 39.5661C334.675 40.2408 334.857 41.0114 334.857 41.8778V53H329.956V50.7202H329.828C329.537 51.2741 329.164 51.7429 328.71 52.1264C328.262 52.5099 327.733 52.7976 327.122 52.9893C326.518 53.1811 325.837 53.277 325.077 53.277ZM326.685 49.8679C327.246 49.8679 327.751 49.7543 328.198 49.527C328.653 49.2997 329.015 48.9872 329.285 48.5895C329.555 48.1847 329.69 47.7159 329.69 47.1832V45.6278C329.54 45.706 329.359 45.777 329.146 45.8409C328.94 45.9048 328.713 45.9652 328.464 46.022C328.216 46.0788 327.96 46.1286 327.697 46.1712C327.435 46.2138 327.183 46.2528 326.941 46.2884C326.451 46.3665 326.032 46.4872 325.684 46.6506C325.343 46.8139 325.08 47.027 324.896 47.2898C324.718 47.5455 324.629 47.8509 324.629 48.206C324.629 48.7457 324.821 49.1577 325.205 49.4418C325.595 49.7259 326.089 49.8679 326.685 49.8679ZM347.278 36.6364V40.4716H336.955V36.6364H347.278ZM339.118 32.7159H344.327V47.8544C344.327 48.174 344.377 48.4332 344.477 48.6321C344.583 48.8239 344.736 48.9624 344.935 49.0476C345.134 49.1257 345.371 49.1648 345.648 49.1648C345.847 49.1648 346.057 49.147 346.277 49.1115C346.504 49.0689 346.675 49.0334 346.788 49.005L347.577 52.7656C347.328 52.8366 346.977 52.9254 346.522 53.032C346.075 53.1385 345.538 53.206 344.913 53.2344C343.692 53.2912 342.644 53.1491 341.771 52.8082C340.904 52.4602 340.24 51.9205 339.778 51.1889C339.324 50.4574 339.104 49.5376 339.118 48.4297V32.7159ZM355.498 43.6676V53H350.288V31.1818H355.327V39.6406H355.508C355.877 38.6321 356.481 37.8437 357.319 37.2756C358.164 36.7074 359.198 36.4233 360.419 36.4233C361.57 36.4233 362.571 36.679 363.424 37.1903C364.276 37.6946 364.936 38.4084 365.405 39.3317C365.881 40.255 366.115 41.3345 366.108 42.5703V53H360.899V43.593C360.906 42.6839 360.679 41.9737 360.217 41.4624C359.755 40.951 359.105 40.6953 358.267 40.6953C357.721 40.6953 357.238 40.8161 356.819 41.0575C356.407 41.2919 356.083 41.6293 355.849 42.0696C355.622 42.5099 355.505 43.0426 355.498 43.6676Z" fill="black"/>
<path d="M107.352 68.8239V66.6364H122.625V68.8239H116.222V87H113.756V68.8239H107.352ZM130.301 87.3182C128.83 87.3182 127.56 86.9934 126.493 86.3438C125.432 85.6875 124.614 84.7727 124.037 83.5994C123.467 82.4195 123.182 81.0473 123.182 79.483C123.182 77.9186 123.467 76.5398 124.037 75.3466C124.614 74.1468 125.416 73.2121 126.443 72.5426C127.477 71.8665 128.684 71.5284 130.062 71.5284C130.858 71.5284 131.643 71.661 132.419 71.9261C133.195 72.1913 133.901 72.6222 134.537 73.2188C135.173 73.8087 135.68 74.5909 136.058 75.5653C136.436 76.5398 136.625 77.7396 136.625 79.1648V80.1591H124.852V78.1307H134.239C134.239 77.2689 134.066 76.5 133.722 75.8239C133.384 75.1477 132.9 74.6141 132.27 74.223C131.647 73.8319 130.911 73.6364 130.062 73.6364C129.128 73.6364 128.319 73.8684 127.636 74.3324C126.96 74.7898 126.44 75.3864 126.075 76.1222C125.711 76.858 125.528 77.6468 125.528 78.4886V79.8409C125.528 80.9943 125.727 81.9721 126.125 82.7741C126.529 83.5696 127.089 84.1761 127.805 84.5938C128.521 85.0047 129.353 85.2102 130.301 85.2102C130.918 85.2102 131.474 85.1241 131.972 84.9517C132.475 84.7727 132.91 84.5076 133.274 84.1562C133.639 83.7983 133.92 83.3542 134.119 82.8239L136.386 83.4602C136.148 84.2292 135.747 84.9053 135.183 85.4886C134.62 86.0653 133.924 86.5161 133.095 86.8409C132.267 87.1591 131.335 87.3182 130.301 87.3182ZM146.399 87.3182C144.967 87.3182 143.734 86.9801 142.7 86.304C141.666 85.6278 140.871 84.6965 140.314 83.5099C139.757 82.3234 139.479 80.9678 139.479 79.4432C139.479 77.892 139.764 76.5232 140.334 75.3366C140.911 74.1435 141.713 73.2121 142.74 72.5426C143.774 71.8665 144.981 71.5284 146.359 71.5284C147.433 71.5284 148.401 71.7273 149.263 72.125C150.125 72.5227 150.83 73.0795 151.381 73.7955C151.931 74.5114 152.272 75.3466 152.405 76.3011H150.058C149.879 75.6051 149.482 74.9886 148.865 74.4517C148.255 73.9081 147.433 73.6364 146.399 73.6364C145.484 73.6364 144.682 73.875 143.993 74.3523C143.31 74.8229 142.777 75.4891 142.392 76.3509C142.014 77.206 141.825 78.2102 141.825 79.3636C141.825 80.5436 142.011 81.571 142.382 82.446C142.76 83.321 143.29 84.0005 143.973 84.4844C144.662 84.9683 145.471 85.2102 146.399 85.2102C147.009 85.2102 147.562 85.1042 148.06 84.892C148.557 84.6799 148.978 84.375 149.322 83.9773C149.667 83.5795 149.912 83.1023 150.058 82.5455H152.405C152.272 83.447 151.944 84.259 151.42 84.9815C150.903 85.6974 150.217 86.2675 149.362 86.6918C148.514 87.1094 147.526 87.3182 146.399 87.3182ZM158.182 77.8125V87H155.835V66.6364H158.182V74.1136H158.381C158.739 73.3248 159.276 72.6984 159.991 72.2344C160.714 71.7637 161.675 71.5284 162.875 71.5284C163.916 71.5284 164.827 71.7372 165.609 72.1548C166.392 72.5658 166.998 73.1989 167.429 74.054C167.866 74.9025 168.085 75.983 168.085 77.2955V87H165.739V77.4545C165.739 76.2415 165.424 75.3035 164.794 74.6406C164.171 73.9711 163.306 73.6364 162.199 73.6364C161.43 73.6364 160.741 73.7988 160.131 74.1236C159.527 74.4484 159.05 74.9223 158.699 75.5455C158.354 76.1686 158.182 76.9242 158.182 77.8125ZM174.725 77.8125V87H172.378V71.7273H174.645V74.1136H174.844C175.202 73.3381 175.746 72.715 176.475 72.2443C177.204 71.767 178.145 71.5284 179.299 71.5284C180.333 71.5284 181.238 71.7405 182.013 72.1648C182.789 72.5824 183.392 73.2188 183.823 74.0739C184.254 74.9223 184.469 75.9962 184.469 77.2955V87H182.123V77.4545C182.123 76.2547 181.811 75.3201 181.188 74.6506C180.565 73.9744 179.71 73.6364 178.623 73.6364C177.873 73.6364 177.204 73.7988 176.614 74.1236C176.031 74.4484 175.57 74.9223 175.232 75.5455C174.894 76.1686 174.725 76.9242 174.725 77.8125ZM194.962 87.3182C193.583 87.3182 192.373 86.9901 191.332 86.3338C190.298 85.6776 189.49 84.7595 188.906 83.5795C188.33 82.3996 188.041 81.0208 188.041 79.4432C188.041 77.8523 188.33 76.4635 188.906 75.277C189.49 74.0904 190.298 73.169 191.332 72.5128C192.373 71.8565 193.583 71.5284 194.962 71.5284C196.34 71.5284 197.547 71.8565 198.581 72.5128C199.622 73.169 200.43 74.0904 201.007 75.277C201.59 76.4635 201.882 77.8523 201.882 79.4432C201.882 81.0208 201.59 82.3996 201.007 83.5795C200.43 84.7595 199.622 85.6776 198.581 86.3338C197.547 86.9901 196.34 87.3182 194.962 87.3182ZM194.962 85.2102C196.009 85.2102 196.871 84.9418 197.547 84.4048C198.223 83.8679 198.723 83.1619 199.048 82.2869C199.373 81.4119 199.536 80.464 199.536 79.4432C199.536 78.4223 199.373 77.4711 199.048 76.5895C198.723 75.7079 198.223 74.9953 197.547 74.4517C196.871 73.9081 196.009 73.6364 194.962 73.6364C193.914 73.6364 193.053 73.9081 192.376 74.4517C191.7 74.9953 191.2 75.7079 190.875 76.5895C190.55 77.4711 190.388 78.4223 190.388 79.4432C190.388 80.464 190.55 81.4119 190.875 82.2869C191.2 83.1619 191.7 83.8679 192.376 84.4048C193.053 84.9418 193.914 85.2102 194.962 85.2102ZM207.811 66.6364V87H205.464V66.6364H207.811ZM218.313 87.3182C216.934 87.3182 215.725 86.9901 214.684 86.3338C213.65 85.6776 212.841 84.7595 212.258 83.5795C211.681 82.3996 211.393 81.0208 211.393 79.4432C211.393 77.8523 211.681 76.4635 212.258 75.277C212.841 74.0904 213.65 73.169 214.684 72.5128C215.725 71.8565 216.934 71.5284 218.313 71.5284C219.692 71.5284 220.898 71.8565 221.933 72.5128C222.973 73.169 223.782 74.0904 224.359 75.277C224.942 76.4635 225.234 77.8523 225.234 79.4432C225.234 81.0208 224.942 82.3996 224.359 83.5795C223.782 84.7595 222.973 85.6776 221.933 86.3338C220.898 86.9901 219.692 87.3182 218.313 87.3182ZM218.313 85.2102C219.361 85.2102 220.222 84.9418 220.898 84.4048C221.575 83.8679 222.075 83.1619 222.4 82.2869C222.725 81.4119 222.887 80.464 222.887 79.4432C222.887 78.4223 222.725 77.4711 222.4 76.5895C222.075 75.7079 221.575 74.9953 220.898 74.4517C220.222 73.9081 219.361 73.6364 218.313 73.6364C217.266 73.6364 216.404 73.9081 215.728 74.4517C215.052 74.9953 214.551 75.7079 214.227 76.5895C213.902 77.4711 213.739 78.4223 213.739 79.4432C213.739 80.464 213.902 81.4119 214.227 82.2869C214.551 83.1619 215.052 83.8679 215.728 84.4048C216.404 84.9418 217.266 85.2102 218.313 85.2102ZM234.98 93.0455C233.847 93.0455 232.873 92.8996 232.057 92.608C231.242 92.3229 230.562 91.9451 230.019 91.4744C229.482 91.0104 229.054 90.5133 228.736 89.983L230.605 88.6705C230.818 88.9489 231.086 89.267 231.411 89.625C231.736 89.9896 232.18 90.3045 232.743 90.5696C233.313 90.8414 234.059 90.9773 234.98 90.9773C236.213 90.9773 237.231 90.679 238.033 90.0824C238.835 89.4858 239.236 88.5511 239.236 87.2784V84.1761H239.037C238.865 84.4545 238.62 84.7992 238.301 85.2102C237.99 85.6146 237.539 85.9759 236.949 86.294C236.366 86.6056 235.577 86.7614 234.583 86.7614C233.35 86.7614 232.243 86.4697 231.262 85.8864C230.287 85.303 229.515 84.4545 228.945 83.3409C228.382 82.2273 228.1 80.875 228.1 79.2841C228.1 77.7197 228.375 76.3575 228.925 75.1974C229.475 74.0308 230.241 73.1293 231.222 72.4929C232.203 71.8499 233.337 71.5284 234.623 71.5284C235.617 71.5284 236.406 71.6941 236.989 72.0256C237.579 72.3504 238.03 72.7216 238.341 73.1392C238.659 73.5502 238.905 73.8883 239.077 74.1534H239.316V71.7273H241.583V87.4375C241.583 88.75 241.284 89.8172 240.688 90.6392C240.098 91.4678 239.302 92.0743 238.301 92.4588C237.307 92.8499 236.2 93.0455 234.98 93.0455ZM234.901 84.6534C235.842 84.6534 236.638 84.438 237.287 84.0071C237.937 83.5762 238.431 82.9564 238.769 82.1477C239.107 81.339 239.276 80.3712 239.276 79.2443C239.276 78.1439 239.11 77.1728 238.779 76.331C238.447 75.4891 237.957 74.8295 237.307 74.3523C236.658 73.875 235.855 73.6364 234.901 73.6364C233.907 73.6364 233.078 73.8883 232.415 74.392C231.759 74.8958 231.265 75.572 230.934 76.4205C230.609 77.2689 230.446 78.2102 230.446 79.2443C230.446 80.3049 230.612 81.2429 230.944 82.0582C231.282 82.867 231.779 83.5033 232.435 83.9673C233.098 84.4247 233.92 84.6534 234.901 84.6534ZM247.39 92.7273C246.992 92.7273 246.637 92.6941 246.326 92.6278C246.014 92.5682 245.799 92.5085 245.679 92.4489L246.276 90.3807C246.846 90.5265 247.35 90.5795 247.787 90.5398C248.225 90.5 248.613 90.3045 248.951 89.9531C249.295 89.6084 249.61 89.0483 249.895 88.2727L250.333 87.0795L244.685 71.7273H247.23L251.446 83.8977H251.605L255.821 71.7273H258.367L251.884 89.2273C251.592 90.0161 251.231 90.669 250.8 91.1861C250.369 91.7098 249.869 92.0975 249.299 92.3494C248.735 92.6013 248.099 92.7273 247.39 92.7273ZM272.123 66.6364V87H269.657V66.6364H272.123ZM279.096 77.8125V87H276.749V71.7273H279.016V74.1136H279.215C279.573 73.3381 280.117 72.715 280.846 72.2443C281.575 71.767 282.516 71.5284 283.67 71.5284C284.704 71.5284 285.609 71.7405 286.384 72.1648C287.16 72.5824 287.763 73.2188 288.194 74.0739C288.625 74.9223 288.84 75.9962 288.84 77.2955V87H286.494V77.4545C286.494 76.2547 286.182 75.3201 285.559 74.6506C284.936 73.9744 284.081 73.6364 282.994 73.6364C282.245 73.6364 281.575 73.7988 280.985 74.1236C280.402 74.4484 279.941 74.9223 279.603 75.5455C279.265 76.1686 279.096 76.9242 279.096 77.8125ZM303.946 75.1477L301.838 75.7443C301.706 75.393 301.51 75.0516 301.252 74.7202C301 74.3821 300.655 74.1037 300.218 73.8849C299.78 73.6662 299.22 73.5568 298.537 73.5568C297.603 73.5568 296.824 73.7723 296.201 74.2031C295.584 74.6274 295.276 75.1676 295.276 75.8239C295.276 76.4072 295.488 76.8679 295.912 77.206C296.337 77.544 296.999 77.8258 297.901 78.0511L300.168 78.608C301.533 78.9394 302.551 79.4465 303.221 80.1293C303.89 80.8054 304.225 81.6771 304.225 82.7443C304.225 83.6193 303.973 84.4015 303.469 85.0909C302.972 85.7803 302.276 86.3239 301.381 86.7216C300.486 87.1193 299.445 87.3182 298.259 87.3182C296.701 87.3182 295.412 86.9801 294.391 86.304C293.37 85.6278 292.724 84.6402 292.452 83.3409L294.679 82.7841C294.891 83.6061 295.292 84.2225 295.882 84.6335C296.479 85.0445 297.258 85.25 298.219 85.25C299.313 85.25 300.181 85.018 300.824 84.554C301.474 84.0833 301.799 83.5199 301.799 82.8636C301.799 82.3333 301.613 81.8892 301.242 81.5312C300.871 81.1667 300.301 80.8949 299.532 80.7159L296.986 80.1193C295.587 79.7879 294.56 79.2741 293.904 78.5781C293.254 77.8755 292.929 76.9972 292.929 75.9432C292.929 75.0814 293.171 74.3191 293.655 73.6562C294.146 72.9934 294.812 72.473 295.654 72.0952C296.502 71.7173 297.463 71.5284 298.537 71.5284C300.049 71.5284 301.235 71.8598 302.097 72.5227C302.965 73.1856 303.582 74.0606 303.946 75.1477ZM314.399 71.7273V73.7159H306.484V71.7273H314.399ZM308.791 68.0682H311.138V82.625C311.138 83.2879 311.234 83.785 311.426 84.1165C311.625 84.4413 311.877 84.66 312.182 84.7727C312.493 84.8788 312.821 84.9318 313.166 84.9318C313.425 84.9318 313.637 84.9186 313.803 84.892C313.968 84.8589 314.101 84.8324 314.2 84.8125L314.678 86.9205C314.518 86.9801 314.296 87.0398 314.011 87.0994C313.726 87.1657 313.365 87.1989 312.928 87.1989C312.265 87.1989 311.615 87.0563 310.979 86.7713C310.349 86.4863 309.825 86.0521 309.408 85.4688C308.997 84.8854 308.791 84.1496 308.791 83.2614V68.0682ZM317.929 87V71.7273H320.276V87H317.929ZM319.122 69.1818C318.665 69.1818 318.27 69.026 317.939 68.7145C317.614 68.4029 317.452 68.0284 317.452 67.5909C317.452 67.1534 317.614 66.7789 317.939 66.4673C318.27 66.1558 318.665 66 319.122 66C319.58 66 319.971 66.1558 320.295 66.4673C320.627 66.7789 320.793 67.1534 320.793 67.5909C320.793 68.0284 320.627 68.4029 320.295 68.7145C319.971 69.026 319.58 69.1818 319.122 69.1818ZM331.216 71.7273V73.7159H323.301V71.7273H331.216ZM325.608 68.0682H327.954V82.625C327.954 83.2879 328.05 83.785 328.243 84.1165C328.441 84.4413 328.693 84.66 328.998 84.7727C329.31 84.8788 329.638 84.9318 329.983 84.9318C330.241 84.9318 330.453 84.9186 330.619 84.892C330.785 84.8589 330.917 84.8324 331.017 84.8125L331.494 86.9205C331.335 86.9801 331.113 87.0398 330.828 87.0994C330.543 87.1657 330.181 87.1989 329.744 87.1989C329.081 87.1989 328.431 87.0563 327.795 86.7713C327.165 86.4863 326.642 86.0521 326.224 85.4688C325.813 84.8854 325.608 84.1496 325.608 83.2614V68.0682ZM344.37 80.7557V71.7273H346.717V87H344.37V84.4148H344.211C343.853 85.1903 343.297 85.8499 342.541 86.3935C341.785 86.9304 340.831 87.1989 339.677 87.1989C338.723 87.1989 337.874 86.9901 337.132 86.5724C336.389 86.1482 335.806 85.5118 335.382 84.6634C334.958 83.8082 334.745 82.7311 334.745 81.4318V71.7273H337.092V81.2727C337.092 82.3864 337.404 83.2746 338.027 83.9375C338.656 84.6004 339.458 84.9318 340.433 84.9318C341.016 84.9318 341.609 84.7827 342.213 84.4844C342.823 84.1861 343.333 83.7287 343.744 83.1122C344.162 82.4957 344.37 81.7102 344.37 80.7557ZM357.657 71.7273V73.7159H349.742V71.7273H357.657ZM352.049 68.0682H354.396V82.625C354.396 83.2879 354.492 83.785 354.684 84.1165C354.883 84.4413 355.135 84.66 355.44 84.7727C355.751 84.8788 356.079 84.9318 356.424 84.9318C356.683 84.9318 356.895 84.9186 357.06 84.892C357.226 84.8589 357.359 84.8324 357.458 84.8125L357.935 86.9205C357.776 86.9801 357.554 87.0398 357.269 87.0994C356.984 87.1657 356.623 87.1989 356.185 87.1989C355.522 87.1989 354.873 87.0563 354.237 86.7713C353.607 86.4863 353.083 86.0521 352.665 85.4688C352.254 84.8854 352.049 84.1496 352.049 83.2614V68.0682ZM367.426 87.3182C365.955 87.3182 364.685 86.9934 363.618 86.3438C362.557 85.6875 361.739 84.7727 361.162 83.5994C360.592 82.4195 360.307 81.0473 360.307 79.483C360.307 77.9186 360.592 76.5398 361.162 75.3466C361.739 74.1468 362.541 73.2121 363.568 72.5426C364.602 71.8665 365.809 71.5284 367.188 71.5284C367.983 71.5284 368.768 71.661 369.544 71.9261C370.32 72.1913 371.026 72.6222 371.662 73.2188C372.298 73.8087 372.805 74.5909 373.183 75.5653C373.561 76.5398 373.75 77.7396 373.75 79.1648V80.1591H361.977V78.1307H371.364C371.364 77.2689 371.191 76.5 370.847 75.8239C370.509 75.1477 370.025 74.6141 369.395 74.223C368.772 73.8319 368.036 73.6364 367.188 73.6364C366.253 73.6364 365.444 73.8684 364.761 74.3324C364.085 74.7898 363.565 75.3864 363.2 76.1222C362.836 76.858 362.653 77.6468 362.653 78.4886V79.8409C362.653 80.9943 362.852 81.9721 363.25 82.7741C363.654 83.5696 364.214 84.1761 364.93 84.5938C365.646 85.0047 366.478 85.2102 367.426 85.2102C368.043 85.2102 368.599 85.1241 369.097 84.9517C369.6 84.7727 370.035 84.5076 370.399 84.1562C370.764 83.7983 371.045 83.3542 371.244 82.8239L373.511 83.4602C373.273 84.2292 372.872 84.9053 372.308 85.4886C371.745 86.0653 371.049 86.5161 370.22 86.8409C369.392 87.1591 368.46 87.3182 367.426 87.3182Z" fill="black"/>
<defs>
<clipPath id="clip0_418_180">
<rect width="91.6643" height="91" fill="white" transform="translate(8 13)"/>
</clipPath>
</defs>
</svg>
